<?xml version="1.0" encoding="UTF-8"?>
<svg version="1.1" xmlns="http://www.w3.org/2000/svg" width="48" height="23">
<path d="M0 0 C2.31 0 4.62 0 7 0 C8.32 2.31 9.64 4.62 11 7 C11.33 4.69 11.66 2.38 12 0 C14.31 0 16.62 0 19 0 C19 7.59 19 15.18 19 23 C16.69 23 14.38 23 12 23 C9.5625 20 9.5625 20 8 17 C7.67 18.98 7.34 20.96 7 23 C4.69 23 2.38 23 0 23 C0 15.41 0 7.82 0 0 Z " fill="#34726D" transform="translate(29,0)"/>
<path d="M0 0 C2.31 0 4.62 0 7 0 C7 7.59 7 15.18 7 23 C4.69 23 2.38 23 0 23 C0 15.41 0 7.82 0 0 Z " fill="#34726E" transform="translate(18,0)"/>
<path d="M0 0 C2.31 0 4.62 0 7 0 C7 7.59 7 15.18 7 23 C4.69 23 2.38 23 0 23 C0 15.41 0 7.82 0 0 Z " fill="#34726D" transform="translate(0,0)"/>
<path d="M0 0 C2.64 0 5.28 0 8 0 C8 1.98 8 3.96 8 6 C5.36 6 2.72 6 0 6 C0 4.02 0 2.04 0 0 Z " fill="#34726D" transform="translate(8,0)"/>
<path d="M0 0 C2.31 0 4.62 0 7 0 C7 1.98 7 3.96 7 6 C4.69 6 2.38 6 0 6 C0 4.02 0 2.04 0 0 Z " fill="#34716E" transform="translate(8,9)"/>
</svg>
